<?xml version="1.0" encoding="UTF-8"?>
<svg width="500px" height="500px" viewBox="0 0 500 500" version="1.1" xmlns="http://www.w3.org/2000/svg" xmlns:xlink="http://www.w3.org/1999/xlink">
    <!-- Generator: Sketch 50.2 (55047) - http://www.bohemiancoding.com/sketch -->
    <title>Artboard</title>
    <desc>Created with Sketch.</desc>
    <defs></defs>
    <g id="Artboard" stroke="none" stroke-width="1" fill="none" fill-rule="evenodd">
        <path d="M334.974392,385.018402 C321.154827,371.198837 321.154827,348.792895 334.974392,334.97333 C348.793957,321.153765 371.199899,321.153765 385.019463,334.97333 L489.635326,439.589193 C503.454891,453.408758 503.454891,475.8147 489.635326,489.634265 C475.815761,503.45383 453.40982,503.45383 439.590255,489.634265 L334.974392,385.018402 Z M313.872656,112.48359 C258.260427,56.8713618 168.095819,56.8713618 112.48359,112.48359 C56.8713618,168.095819 56.8713618,258.260427 112.48359,313.872656 C168.095819,369.484884 258.260427,369.484884 313.872656,313.872656 C369.484884,258.260427 369.484884,168.095819 313.872656,112.48359 Z M363.917727,62.4385188 C447.169086,145.689877 447.169086,280.666369 363.917727,363.917727 C280.666369,447.169086 145.689877,447.169086 62.4385188,363.917727 C-20.8128396,280.666369 -20.8128396,145.689877 62.4385188,62.4385188 C145.689877,-20.8128396 280.666369,-20.8128396 363.917727,62.4385188 Z" id="Shape" fill="#585858" fill-rule="nonzero"></path>
    </g>
</svg>