<?xml version="1.0" encoding="UTF-8"?>
<svg width="500px" height="500px" viewBox="0 0 500 500" version="1.1" xmlns="http://www.w3.org/2000/svg" xmlns:xlink="http://www.w3.org/1999/xlink">
    <!-- Generator: Sketch 50.2 (55047) - http://www.bohemiancoding.com/sketch -->
    <title>Artboard</title>
    <desc>Created with Sketch.</desc>
    <defs></defs>
    <g id="Artboard" stroke="none" stroke-width="1" fill="none" fill-rule="evenodd">
        <g id="store" transform="translate(75.000000, 0.000000)">
            <path d="M198.112473,6.05956723 L322.324658,71.7260777 C338.60341,80.3324916 348.787815,97.2362794 348.787815,115.650487 L348.787815,242.863639 C348.787815,259.547819 340.41492,275.117071 326.495206,284.314735 L202.283021,366.398122 C185.67138,377.375498 164.109139,377.375498 147.497498,366.398122 L23.285313,284.314735 C9.36659244,275.117071 0.992703782,259.546826 0.992703782,242.863639 L0.992703782,115.650487 C0.992703782,97.2362794 11.1771092,80.3324916 27.4558613,71.7260777 L151.668046,6.05956723 C166.196897,-1.62072059 183.582628,-1.62072059 198.110485,6.05956723 L198.112473,6.05956723 Z M179.154712,257.253372 C221.324252,257.253372 255.509433,225.950908 255.509433,187.336817 C255.509433,148.722727 221.324252,117.420263 179.154712,117.420263 C136.985172,117.420263 102.799992,148.722727 102.799992,187.336817 C102.799992,225.950908 136.985172,257.253372 179.154712,257.253372 Z" id="Shape" fill="#BFBFBF" fill-rule="nonzero"></path>
            <path d="M25.8361345,423.315126 C25.8361345,450.755088 92.5698761,473 174.890756,473 C257.211637,473 323.945378,450.755088 323.945378,423.315126" id="Shape" stroke="#BFBFBF" stroke-width="50" stroke-linecap="round" stroke-linejoin="round"></path>
        </g>
    </g>
</svg>